<svg xmlns="http://www.w3.org/2000/svg" viewBox="0 0 512.00006 512" id="svg36"><g clip-path="url(#cl_3)" id="g36" transform="translate(-22.356956,-6.0420284)"><g id="g37" transform="matrix(1.2658649,0,0,1.2683074,-67.450549,-64.982344)"><path fill="#0b111b" transform="translate(0,-254)" d="m 109.824,310.757 c 19.647,-0.912 45.016,-0.219 65.016,-0.219 l 122.931,0.01 90.221,0.033 c 19.172,-0.02 52.066,-3.522 68.75,6.897 7.609,4.751 16.297,17.12 17.301,26.393 1.85,17.08 1.219,35.012 1.222,52.34 l 0.031,92.4 -0.028,118.561 c 0.028,21.87 0.52,43.848 -0.491,65.679 -1.075,23.224 -14.94,36.667 -37.375,40.197 -7.468,1.086 -33.035,0.459 -42.086,0.458 l -89.383,0.009 -129.589,-0.007 c -21.703,-0.001 -43.547,0.341 -65.199,-0.299 C 99.057,712.71 87.4996,706.763 80.3483,696.995 67.9998,680.127 71.3573,651.459 71.3752,631.044 L 71.432,543.949 71.4061,416.851 c -5e-4,-21.628 -0.475,-43.437 0.4599,-65.026 1.0081,-23.278 15.6251,-37.34 37.958,-41.068 z" id="path3" /><path fill="#5789d2" transform="translate(0,-254)" d="m 273.006,648.128 c -1.089,-4.867 -1.88,-21.312 -2.28,-26.895 l -3.925,-51.188 -9.591,-127.349 c -1.304,-19.719 -4.037,-41.848 -2.732,-61.316 2.12,-31.627 38.714,-29.547 39.744,2.217 0.411,12.664 -0.438,27.901 -2.405,40.478 -1.619,27.214 -3.379,54.419 -5.28,81.615 -0.534,7.987 -1.766,33.928 -2.965,40.032 l -0.473,-5.063 c -2.354,0.192 -5.023,0.192 -7.171,-0.879 l -1.028,0.544 c -1.278,12.989 1.026,32.275 -0.489,44.363 -0.121,8.813 0.958,59.247 -1.405,63.441 z" id="path4" /><path fill="#95c4ef" transform="translate(0,-254)" d="m 274.411,584.687 c -0.627,-3.819 -0.834,-24.538 -0.668,-28.401 0.531,-12.36 -0.304,-45.097 1.246,-56.327 2.175,-15.76 10.022,-68.107 15.768,-81.815 1.153,1.15 0.908,3.867 1.06,5.931 -1.619,27.214 -3.379,54.419 -5.28,81.615 -0.534,7.987 -1.766,33.928 -2.965,40.032 l -0.473,-5.063 c -2.354,0.192 -5.023,0.192 -7.171,-0.879 l -1.028,0.544 c -1.278,12.989 1.026,32.275 -0.489,44.363 z" id="path5" /><path fill="#0b111b" transform="translate(0,-254)" d="m 272.421,373.503 c 11.567,1.187 11.537,13.512 11.313,22.424 -0.206,8.204 -0.12,15.034 -7.474,19.874 -4.29,-0.111 -7.532,-0.378 -9.669,-5.119 -3.778,-8.382 -3.062,-21.368 -1.035,-30.238 0.879,-3.845 3.708,-5.46 6.865,-6.941 z" id="path6" /><path fill="#d9e7fa" transform="translate(0,-254)" d="m 274.411,584.687 c 1.515,-12.088 -0.789,-31.374 0.489,-44.363 l 1.028,-0.544 c 2.148,1.071 4.817,1.071 7.171,0.879 l 0.473,5.063 c -0.014,6.074 -1.339,31.805 -2.129,36.501 -1.592,9.467 -3.19,78.018 -6.293,82.127 -2.159,-2.826 -2.02,-12.32 -2.144,-16.222 2.363,-4.194 1.284,-54.628 1.405,-63.441 z" id="path7" /><path fill="#2a569d" transform="translate(0,-254)" d="m 378.273,476.626 c 7.022,0.469 16.501,0.245 23.709,0.276 0.045,7.504 0.011,15.008 -0.1,22.511 l -23.674,0.043 c -0.126,-7.609 -0.105,-15.221 0.065,-22.83 z" id="path8" /><path fill="#2a569d" transform="translate(0,-254)" d="m 378.38,506.763 23.527,0.293 c 0.039,7.424 0.029,14.848 -0.031,22.272 -7.765,0.13 -15.531,0.133 -23.295,0.011 -0.472,-7.392 -0.27,-15.141 -0.201,-22.576 z" id="path9" /><path fill="#2a569d" transform="translate(0,-254)" d="m 383.353,536.01 c 6.327,-0.186 12.375,-0.057 18.698,0.064 0.035,5.179 1.197,18.746 -1.268,21.93 l -3.096,0.239 -19.336,-0.014 c -0.154,-4.266 -1.402,-17.554 1.021,-21.396 0.524,-0.831 2.629,-0.703 3.981,-0.823 z" id="path10" /><path fill="#2a569d" transform="translate(0,-254)" d="m 415.731,536.165 c 7.737,-0.168 15.863,0.063 23.631,0.171 0.059,7.256 -0.05,14.62 -0.095,21.885 -7.4,0.241 -15.869,0.056 -23.356,0.072 -0.118,-7.375 -0.178,-14.751 -0.18,-22.128 z" id="path11" /><path fill="#2a569d" transform="translate(0,-254)" d="m 416.164,477.203 23.149,0.063 c 0.167,7.311 0.08,14.917 0.097,22.255 -7.713,0.105 -15.576,0.039 -23.303,0.054 -0.191,-7.282 -0.002,-15.049 0.057,-22.372 z" id="path12" /><path fill="#5789d2" transform="translate(0,-254)" d="m 338.339,536.178 23.187,-0.114 -0.009,22.229 -23.146,-0.046 z" id="path13" /><path fill="#2a569d" transform="translate(0,-254)" d="m 416.085,448.183 23.352,0.134 -0.057,21.938 -23.243,0.012 c -0.109,-7.361 -0.127,-14.723 -0.052,-22.084 z" id="path14" /><path fill="#5789d2" transform="translate(0,-254)" d="m 338.493,506.341 23.054,0.046 c 0.02,7.42 0.004,14.84 -0.05,22.26 l -23.098,-0.075 z" id="path15" /><path fill="#95c4ef" transform="translate(0,-254)" d="m 301.616,536.4 23.184,-0.023 -0.025,21.986 -23.089,-0.103 z" id="path16" /><path fill="#5789d2" transform="translate(0,-254)" d="m 301.506,448.354 c 7.748,-0.208 15.533,-0.003 23.285,0.137 l -0.029,21.675 c -7.757,0.065 -15.514,0.071 -23.271,0.02 z" id="path17" /><path fill="#5789d2" transform="translate(0,-254)" d="m 301.59,508.57 23.08,0.205 c 0.138,7.183 0.048,14.603 0.052,21.806 l -23.126,-0.053 z" id="path18" /><path fill="#5789d2" transform="translate(0,-254)" d="m 338.172,448.327 c 7.638,-0.072 15.594,0.11 23.259,0.175 l 0.043,21.56 -23.179,-0.003 c -0.09,-7.244 -0.131,-14.488 -0.123,-21.732 z" id="path19" /><path fill="#95c4ef" transform="translate(0,-254)" d="m 301.553,480.864 c 7.544,-0.133 15.437,0.029 23.01,0.075 l 0.143,21.655 -23.205,0.1 z" id="path20" /><path fill="#5789d2" transform="translate(0,-254)" d="m 224.102,535.183 c 6.697,-0.196 13.753,-0.112 20.481,-0.13 0.074,6.774 0.245,13.616 -0.09,20.376 l -20.404,0.088 c -0.073,-6.778 -0.069,-13.556 0.013,-20.334 z" id="path21" /><path fill="#5789d2" transform="translate(0,-254)" d="m 225.839,494.598 20.126,0.028 0.018,19.97 -20.153,0.009 z" id="path22" /><path fill="#5789d2" transform="translate(0,-254)" d="m 226.324,451.829 19.57,0.245 c 0.103,6.267 0.399,13.222 -0.082,19.422 l -19.36,-0.197 c -0.154,-6.489 -0.197,-12.98 -0.128,-19.47 z" id="path23" /><path fill="#5789d2" transform="translate(0,-254)" d="m 191.509,474.237 c 6.338,-0.107 13.013,0.081 19.378,0.173 0.071,6.368 0.098,12.736 0.08,19.103 l -19.495,-0.09 z" id="path24" /><path fill="#5789d2" transform="translate(0,-254)" d="m 192.825,515.597 15.695,-0.075 c 0.073,5.053 0.016,10.106 -0.171,15.156 -5.066,0.205 -10.469,0.137 -15.563,0.163 -0.045,-5.033 0.024,-10.2 0.039,-15.244 z" id="path25" /><path fill="#5789d2" transform="translate(0,-254)" d="m 227.113,573.356 15.128,-0.047 -0.066,14.91 -15.13,-0.143 z" id="path26" /><path fill="#5789d2" transform="translate(0,-254)" d="m 206.327,423.872 14.798,0.071 0.105,14.244 -14.948,0.168 z" id="path27" /><path fill="#5789d2" transform="translate(0,-254)" d="m 190.431,555.032 14.157,0.011 0.095,13.595 -14.226,0.074 z" id="path28" /><path fill="#2a569d" transform="translate(0,-254)" d="m 166.487,575.446 12.656,-0.018 0.076,12.13 -12.755,-0.162 z" id="path29" /><path fill="#5789d2" transform="translate(0,-254)" d="m 166.474,516.179 12.284,0.016 0.013,12 -12.353,-0.081 z" id="path30" /><path fill="#2a569d" transform="translate(0,-254)" d="m 144.148,543.748 12.6,0.052 -0.076,11.595 c -4.182,0.126 -8.493,0.051 -12.687,0.033 z" id="path31" /><path fill="#2a569d" transform="translate(0,-254)" d="m 175.859,418.959 c 1.997,-0.997 4.378,-0.838 6.224,0.418 1.847,1.255 2.871,3.411 2.678,5.636 -0.193,2.225 -1.572,4.172 -3.607,5.091 -3.063,1.383 -6.669,0.061 -8.111,-2.975 -1.443,-3.036 -0.191,-6.668 2.816,-8.17 z" id="path32" /><path fill="#5789d2" transform="translate(0,-254)" d="m 153.124,445.246 c 2.994,-1.343 6.51,0.013 7.827,3.02 1.316,3.007 -0.071,6.51 -3.088,7.801 -2.98,1.274 -6.43,-0.092 -7.731,-3.062 -1.3,-2.969 0.035,-6.432 2.992,-7.759 z" id="path33" /><path fill="#2a569d" transform="translate(0,-254)" d="m 110.84,473.074 c 1.321,-0.995 3.086,-1.175 4.581,-0.467 1.496,0.707 2.475,2.187 2.543,3.84 0.068,1.654 -0.786,3.209 -2.218,4.037 -2.037,1.179 -4.64,0.568 -5.94,-1.395 -1.299,-1.963 -0.847,-4.598 1.034,-6.015 z" id="path34" /><path fill="#2a569d" transform="translate(0,-254)" d="m 123.623,517.959 c 1.94,-1.155 4.449,-0.524 5.612,1.412 1.163,1.935 0.544,4.447 -1.386,5.62 -1.942,1.18 -4.473,0.555 -5.644,-1.393 -1.171,-1.948 -0.535,-4.477 1.418,-5.639 z" id="path35" /><path fill="#2a569d" transform="translate(0,-254)" d="m 156.873,481.168 c 1.244,-0.728 2.784,-0.73 4.029,-0.003 1.245,0.727 2.002,2.068 1.98,3.51 -0.022,1.442 -0.819,2.76 -2.086,3.448 -1.915,1.041 -4.311,0.352 -5.382,-1.547 -1.072,-1.899 -0.422,-4.306 1.459,-5.408 z" id="path36" /></g></g></svg>